REM DIRINDEX 1\2,1\3,1\4,1\5
REM DIRNAME cjc005,folder01,folder02,folder03,folder04
TITLE ""
FILE "P1Q_j_1719-1732.mp3" MP3
  TRACK 01 AUDIO
    TITLE "3:cjc005_0506"
    INDEX 01 00:00:00
  TRACK 02 AUDIO
    TITLE "0:"
    INDEX 01 00:00:74
  TRACK 03 AUDIO
    TITLE "4:cjc005_0507"
    INDEX 01 00:01:28
  TRACK 04 AUDIO
    TITLE "0:"
    INDEX 01 00:02:36
  TRACK 05 AUDIO
    TITLE "5:cjc005_0508"
    INDEX 01 00:02:63
  TRACK 06 AUDIO
    TITLE "0:"
    INDEX 01 00:06:45
  TRACK 07 AUDIO
    TITLE "3:cjc005_0509"
    INDEX 01 00:07:23
  TRACK 08 AUDIO
    TITLE "0:"
    INDEX 01 00:08:40
  TRACK 09 AUDIO
    TITLE "4:cjc005_0510"
    INDEX 01 00:08:72
  TRACK 10 AUDIO
    TITLE "0:"
    INDEX 01 00:10:19
  TRACK 11 AUDIO
    TITLE "5:cjc005_0511"
    INDEX 01 00:10:45
  TRACK 12 AUDIO
    TITLE "0:"
    INDEX 01 00:14:45
  TRACK 13 AUDIO
    TITLE "3:cjc005_0512"
    INDEX 01 00:15:36
  TRACK 14 AUDIO
    TITLE "0:"
    INDEX 01 00:16:67
  TRACK 15 AUDIO
    TITLE "4:cjc005_0513"
    INDEX 01 00:17:16
  TRACK 16 AUDIO
    TITLE "0:"
    INDEX 01 00:18:68
  TRACK 17 AUDIO
    TITLE "5:cjc005_0514"
    INDEX 01 00:19:16
  TRACK 18 AUDIO
    TITLE "0:"
    INDEX 01 00:22:72
  TRACK 19 AUDIO
    TITLE "3:cjc005_0515"
    INDEX 01 00:23:51
  TRACK 20 AUDIO
    TITLE "0:"
    INDEX 01 00:24:69
  TRACK 21 AUDIO
    TITLE "4:cjc005_0516"
    INDEX 01 00:25:23
  TRACK 22 AUDIO
    TITLE "0:"
    INDEX 01 00:27:34
  TRACK 23 AUDIO
    TITLE "5:cjc005_0517"
    INDEX 01 00:27:59
  TRACK 24 AUDIO
    TITLE "0:"
    INDEX 01 00:31:61
  TRACK 25 AUDIO
    TITLE "3:cjc005_0518"
    INDEX 01 00:32:37
  TRACK 26 AUDIO
    TITLE "0:"
    INDEX 01 00:33:64
  TRACK 27 AUDIO
    TITLE "4:cjc005_0519"
    INDEX 01 00:34:18
  TRACK 28 AUDIO
    TITLE "0:"
    INDEX 01 00:35:43
  TRACK 29 AUDIO
    TITLE "5:cjc005_0520"
    INDEX 01 00:35:64
  TRACK 30 AUDIO
    TITLE "0:"
    INDEX 01 00:39:43
  TRACK 31 AUDIO
    TITLE "3:cjc005_0521"
    INDEX 01 00:40:19
  TRACK 32 AUDIO
    TITLE "0:"
    INDEX 01 00:41:57
  TRACK 33 AUDIO
    TITLE "4:cjc005_0522"
    INDEX 01 00:42:10
  TRACK 34 AUDIO
    TITLE "0:"
    INDEX 01 00:43:11
  TRACK 35 AUDIO
    TITLE "5:cjc005_0523"
    INDEX 01 00:43:39
  TRACK 36 AUDIO
    TITLE "0:"
    INDEX 01 00:47:60
  TRACK 37 AUDIO
    TITLE "3:cjc005_0524"
    INDEX 01 00:48:40
  TRACK 38 AUDIO
    TITLE "0:"
    INDEX 01 00:49:69
  TRACK 39 AUDIO
    TITLE "4:cjc005_0525"
    INDEX 01 00:50:23
  TRACK 40 AUDIO
    TITLE "0:"
    INDEX 01 00:51:30
  TRACK 41 AUDIO
    TITLE "5:cjc005_0526"
    INDEX 01 00:51:60
  TRACK 42 AUDIO
    TITLE "0:"
    INDEX 01 00:56:25
  TRACK 43 AUDIO
    TITLE "3:cjc005_0527"
    INDEX 01 00:57:09
  TRACK 44 AUDIO
    TITLE "0:"
    INDEX 01 00:58:36
  TRACK 45 AUDIO
    TITLE "4:cjc005_0528"
    INDEX 01 00:58:69
  TRACK 46 AUDIO
    TITLE "0:"
    INDEX 01 01:00:41
  TRACK 47 AUDIO
    TITLE "5:cjc005_0529"
    INDEX 01 01:00:70
  TRACK 48 AUDIO
    TITLE "0:"
    INDEX 01 01:04:54
  TRACK 49 AUDIO
    TITLE "3:cjc005_0530"
    INDEX 01 01:05:44
  TRACK 50 AUDIO
    TITLE "0:"
    INDEX 01 01:07:02
  TRACK 51 AUDIO
    TITLE "4:cjc005_0531"
    INDEX 01 01:07:23
  TRACK 52 AUDIO
    TITLE "0:"
    INDEX 01 01:08:46
  TRACK 53 AUDIO
    TITLE "5:cjc005_0532"
    INDEX 01 01:08:74
  TRACK 54 AUDIO
    TITLE "0:"
    INDEX 01 01:12:68
  TRACK 55 AUDIO
    TITLE "3:cjc005_0533"
    INDEX 01 01:13:47
  TRACK 56 AUDIO
    TITLE "0:"
    INDEX 01 01:15:23
  TRACK 57 AUDIO
    TITLE "4:cjc005_0534"
    INDEX 01 01:15:56
  TRACK 58 AUDIO
    TITLE "0:"
    INDEX 01 01:17:16
  TRACK 59 AUDIO
    TITLE "5:cjc005_0535"
    INDEX 01 01:17:41
  TRACK 60 AUDIO
    TITLE "0:"
    INDEX 01 01:20:73
  TRACK 61 AUDIO
    TITLE "3:cjc005_0536"
    INDEX 01 01:21:49
  TRACK 62 AUDIO
    TITLE "0:"
    INDEX 01 01:23:32
  TRACK 63 AUDIO
    TITLE "4:cjc005_0537"
    INDEX 01 01:23:62
  TRACK 64 AUDIO
    TITLE "0:"
    INDEX 01 01:25:25
  TRACK 65 AUDIO
    TITLE "5:cjc005_0538"
    INDEX 01 01:25:47
  TRACK 66 AUDIO
    TITLE "0:"
    INDEX 01 01:29:60
  TRACK 67 AUDIO
    TITLE "3:cjc005_0539"
    INDEX 01 01:30:32
  TRACK 68 AUDIO
    TITLE "0:"
    INDEX 01 01:31:71
  TRACK 69 AUDIO
    TITLE "4:cjc005_0540"
    INDEX 01 01:32:35
  TRACK 70 AUDIO
    TITLE "0:"
    INDEX 01 01:33:72
  TRACK 71 AUDIO
    TITLE "5:cjc005_0541"
    INDEX 01 01:34:22
  TRACK 72 AUDIO
    TITLE "0:"
    INDEX 01 01:39:25
  TRACK 73 AUDIO
    TITLE "3:cjc005_0542"
    INDEX 01 01:40:09
  TRACK 74 AUDIO
    TITLE "0:"
    INDEX 01 01:41:34
  TRACK 75 AUDIO
    TITLE "4:cjc005_0543"
    INDEX 01 01:41:61
  TRACK 76 AUDIO
    TITLE "0:"
    INDEX 01 01:43:11
  TRACK 77 AUDIO
    TITLE "5:cjc005_0544"
    INDEX 01 01:43:37
  TRACK 78 AUDIO
    TITLE "0:"
    INDEX 01 01:46:12
  TRACK 79 AUDIO
    TITLE "3:cjc005_0545"
    INDEX 01 01:46:63
  TRACK 80 AUDIO
    TITLE "0:"
    INDEX 01 01:48:16
  TRACK 81 AUDIO
    TITLE "4:cjc005_0546"
    INDEX 01 01:48:46
  TRACK 82 AUDIO
    TITLE "0:"
    INDEX 01 01:49:59
  TRACK 83 AUDIO
    TITLE "5:cjc005_0547"
    INDEX 01 01:50:07
  TRACK 84 AUDIO
    TITLE "0:"
    INDEX 01 01:53:35
